{
 "cells": [
  {
   "cell_type": "code",
   "execution_count": 1,
   "metadata": {},
   "outputs": [],
   "source": [
    "from pathlib import Path\n",
    "import shutil\n",
    "import os\n",
    "cwd = os.getcwd()"
   ]
  },
  {
   "cell_type": "code",
   "execution_count": 5,
   "metadata": {},
   "outputs": [],
   "source": [
    "p = Path(cwd, 'raw_data')"
   ]
  },
  {
   "cell_type": "code",
   "execution_count": 6,
   "metadata": {},
   "outputs": [
    {
     "name": "stderr",
     "output_type": "stream",
     "text": [
      "ffmpeg version 4.3 Copyright (c) 2000-2020 the FFmpeg developers\n",
      "  built with gcc 7.3.0 (crosstool-NG 1.23.0.449-a04d0)\n",
      "  configuration: --prefix=/home/matthias/Programming/miniconda3/envs/mpc --cc=/opt/conda/conda-bld/ffmpeg_1597178665428/_build_env/bin/x86_64-conda_cos6-linux-gnu-cc --disable-doc --disable-openssl --enable-avresample --enable-gnutls --enable-hardcoded-tables --enable-libfreetype --enable-libopenh264 --enable-pic --enable-pthreads --enable-shared --disable-static --enable-version3 --enable-zlib --enable-libmp3lame\n",
      "  libavutil      56. 51.100 / 56. 51.100\n",
      "  libavcodec     58. 91.100 / 58. 91.100\n",
      "  libavformat    58. 45.100 / 58. 45.100\n",
      "  libavdevice    58. 10.100 / 58. 10.100\n",
      "  libavfilter     7. 85.100 /  7. 85.100\n",
      "  libavresample   4.  0.  0 /  4.  0.  0\n",
      "  libswscale      5.  7.100 /  5.  7.100\n",
      "  libswresample   3.  7.100 /  3.  7.100\n",
      "Input #0, mov,mp4,m4a,3gp,3g2,mj2, from '/home/matthias/Storage/Monkey/monkey-pose-classification/raw_data/vid001.mp4':\n",
      "  Metadata:\n",
      "    major_brand     : isom\n",
      "    minor_version   : 512\n",
      "    compatible_brands: isomiso2mp41\n",
      "    encoder         : Lavf57.83.100\n",
      "  Duration: 00:05:00.00, start: 0.000000, bitrate: 12015 kb/s\n",
      "    Stream #0:0(und): Video: mpeg4 (Simple Profile) (mp4v / 0x7634706D), yuv420p, 1024x768 [SAR 1:1 DAR 4:3], 12013 kb/s, 70 fps, 70 tbr, 17920 tbn, 70 tbc (default)\n",
      "    Metadata:\n",
      "      handler_name    : VideoHandler\n",
      "Stream mapping:\n",
      "  Stream #0:0 -> #0:0 (mpeg4 (native) -> bmp (native))\n",
      "Press [q] to stop, [?] for help\n",
      "Output #0, image2, to 'raw_data/frames/%05d.bmp':\n",
      "  Metadata:\n",
      "    major_brand     : isom\n",
      "    minor_version   : 512\n",
      "    compatible_brands: isomiso2mp41\n",
      "    encoder         : Lavf58.45.100\n",
      "    Stream #0:0(und): Video: bmp, bgr24, 1024x768 [SAR 1:1 DAR 4:3], q=2-31, 200 kb/s, 1 fps, 1 tbn, 1 tbc (default)\n",
      "    Metadata:\n",
      "      handler_name    : VideoHandler\n",
      "      encoder         : Lavc58.91.100 bmp\n",
      "frame=  302 fps=1.6 q=-0.0 Lsize=N/A time=00:05:02.00 bitrate=N/A dup=0 drop=20698 speed=1.59x    \n",
      "video:695824kB audio:0kB subtitle:0kB other streams:0kB global headers:0kB muxing overhead: unknown\n"
     ]
    },
    {
     "data": {
      "text/plain": [
       "0"
      ]
     },
     "execution_count": 6,
     "metadata": {},
     "output_type": "execute_result"
    }
   ],
   "source": [
    "p = p / 'vid001.mp4'\n",
    "os.system(\"ffmpeg -i \"+str(p)+\" -r 1/1 raw_data/frames/%05d.bmp\")"
   ]
  }
 ],
 "metadata": {
  "interpreter": {
   "hash": "46e961110a7e0cb6a866fceb9656f583b8efaaf44d1cf4597e75b5ea0fa4ace1"
  },
  "kernelspec": {
   "display_name": "Python 3.8.13 ('mpc')",
   "language": "python",
   "name": "python3"
  },
  "language_info": {
   "codemirror_mode": {
    "name": "ipython",
    "version": 3
   },
   "file_extension": ".py",
   "mimetype": "text/x-python",
   "name": "python",
   "nbconvert_exporter": "python",
   "pygments_lexer": "ipython3",
   "version": "3.8.13"
  },
  "orig_nbformat": 4
 },
 "nbformat": 4,
 "nbformat_minor": 2
}
